PathFileType	4	(X/Y/Z)	C:\Users\WrightLab\Desktop\Jo\P5V21.trc
DataRate	CameraRate	NumFrames	NumMarkers	Units	OrigDataRate	OrigDataStartFrame	OrigNumFrames
100.00	100.00	       20	19	mm	100.00	250	       399
Frame#	Time	Headset_Front			Headset_Back			Headset_Left			Headset_Right			Left_Shoulder			Right_Shoulder			Sternum			C7			Left Elbow			Right Elbow			Left Wrist			Right Wrist			Left ASIS			Right ASIS			S2			Left Knee			Right Knee			Left Ankle			Right Ankle			
		X1	Y1	Z1	X2	Y2	Z2	X3	Y3	Z3	X4	Y4	Z4	X5	Y5	Z5	X6	Y6	Z6	X7	Y7	Z7	X8	Y8	Z8	X9	Y9	Z9	X10	Y10	Z10	X11	Y11	Z11	X12	Y12	Z12	X13	Y13	Z13	X14	Y14	Z14	X15	Y15	Z15	X16	Y16	Z16	X17	Y17	Z17	X18	Y18	Z18	X19	Y19	Z19	

250	2.490	-515.07556	1383.48621	18.96266	-462.79987	1681.06079	-70.33754				-372.59924	1537.05579	-14.31510	-233.27431	1514.91113	-185.07750	-607.29980	1395.00269	-167.21835	-391.36124	1273.89575	-156.50938	-453.18112	1520.20276	-304.50092	-218.33241	1368.04431	-127.52168	-732.63538	1152.14624	-100.39574	-81.72572	1291.23291	-245.77231	-767.61340	1010.10132	109.48158	-171.47672	936.19604	-192.98991	-467.24216	891.96332	-187.37784	-292.31393	1015.03265	-443.96002	-129.45763	503.10931	-207.20262	-483.37439	489.56308	-251.98151	-71.78309	94.10345	-316.67670	-448.42889	90.98524	-281.94415	
251	2.500	-517.08752	1383.73853	21.46987	-465.60168	1680.93933	-69.83229				-604.56964	1489.43335	-43.40920	-235.21736	1515.36060	-185.12865	-609.80182	1394.25867	-166.11389	-393.25980	1273.72644	-156.58963	-456.43591	1520.39722	-304.48691	-220.75075	1368.85486	-126.37301	-733.90424	1151.08313	-98.87734	-83.89243	1291.94519	-245.43846	-769.04565	1008.50226	109.90234	-173.48723	936.35687	-192.07336	-468.77252	891.84210	-187.13045	-294.09515	1014.86633	-442.40692	-131.90007	503.52994	-207.38760	-485.22894	488.80801	-253.48656	-71.59310	94.88958	-316.41458	-448.45511	90.93959	-281.96405	
252	2.510	-519.10724	1383.00562	21.59339	-468.21796	1680.49011	-68.41348				-603.24481	1489.14880	-40.81112	-237.97966	1515.79822	-184.47301	-611.88763	1393.54248	-164.75200	-395.25702	1273.84326	-156.12935	-458.94470	1520.14661	-303.51749	-222.51350	1368.96814	-125.49064	-735.87781	1150.14832	-98.36346	-86.72530	1292.05322	-243.35440	-769.71411	1006.64703	111.41808	-174.88589	936.46686	-191.94447	-471.10074	891.49762	-186.04184	-295.87607	1014.63025	-441.48181	-133.55710	503.65710	-206.32828	-487.96570	489.19366	-254.31708	-71.98188	95.34202	-316.66507	-448.63971	90.63781	-282.13339	
253	2.520	-521.34576	1382.66040	21.36175	-470.83875	1680.46375	-67.63156				-380.48480	1536.41980	-11.94526	-240.94739	1516.38574	-183.21193	-613.99927	1393.52893	-163.81456	-396.79034	1273.40674	-156.03937	-461.12744	1519.99390	-302.05042	-224.89688	1369.31287	-124.58428	-737.21539	1149.29297	-97.14962	-88.48683	1293.01050	-243.59488	-770.70410	1005.54688	111.88692	-176.63449	936.23627	-191.62154	-472.31039	891.38715	-185.72916	-298.43866	1015.12384	-440.04486	-134.60472	503.73209	-206.31813	-490.36194	489.16742	-255.34332	-72.40017	95.54299	-316.58838	-448.71207	90.52708	-283.07715	
254	2.530	-523.48895	1383.40454	22.78179	-473.42194	1680.37964	-67.02089				-382.39117	1536.57410	-11.27298	-242.82109	1515.75525	-182.84293	-616.15057	1392.89966	-163.19937	-398.90506	1274.31384	-154.06372	-463.53680	1519.99487	-301.36716	-227.54608	1369.86792	-124.00204	-738.58344	1148.94580	-96.65349	-89.66279	1292.96594	-242.02859	-771.43634	1004.55298	111.96838	-179.12727	936.93506	-191.98558	-474.59225	891.57440	-183.70552	-300.84149	1015.76428	-440.13074	-135.87660	503.92102	-206.14532	-492.69376	489.02591	-256.20413	-72.91875	96.37276	-316.81940	-448.86557	90.31711	-283.13870	
255	2.540	-525.81201	1383.34521	24.09245	-475.88046	1680.43701	-66.21717				-611.03601	1487.72864	-37.24606	-245.55859	1515.63110	-181.29573	-618.07300	1392.62439	-162.11496	-400.35818	1273.78516	-154.43236	-465.67581	1519.68994	-300.51315	-228.75674	1370.51526	-123.40516	-739.91290	1148.10718	-95.98172	-92.52717	1294.19580	-241.33521	-772.65131	1003.40314	112.85284	-180.92964	937.37683	-191.32695	-476.13483	891.55273	-183.47058	-302.86856	1015.41156	-438.52319	-137.43068	504.02704	-205.57780	-494.28448	488.35437	-257.12775	-73.20177	96.62811	-316.86182	-448.99033	90.19910	-283.46790	
256	2.550	-528.17548	1382.93457	25.78704	-478.15991	1680.28406	-64.98251				-612.08887	1488.20483	-38.31886	-247.54231	1517.42383	-179.49704	-619.71411	1392.28906	-161.35863	-402.63297	1274.61536	-151.82967	-467.79266	1519.72485	-299.24344	-231.11520	1370.67505	-122.62678	-741.02271	1147.55640	-94.89926	-94.14697	1294.78198	-242.03630	-773.33447	1001.97028	113.63876	-181.72052	937.57983	-191.15236	-476.94568	890.88239	-182.18375	-304.96326	1015.80292	-438.05545	-138.03841	503.86011	-205.09732	-498.88254	489.15005	-257.29202	-73.26593	96.63809	-316.83865	-448.97879	90.12338	-283.49313	
257	2.560	-529.73309	1382.37061	24.78939	-480.44379	1680.22583	-64.47852				-615.67224	1487.81116	-37.00471	-250.21469	1516.15259	-180.75453	-621.60730	1392.18823	-160.63620	-404.09705	1274.73254	-151.56738	-469.77728	1519.67407	-298.63797	-232.66933	1370.54102	-121.47168	-742.42261	1147.13599	-94.18193	-95.84651	1294.32104	-241.58046	-773.87225	1000.93402	114.22796	-184.23463	937.97241	-190.36766	-478.74002	890.40228	-181.13635	-307.09241	1016.11432	-435.85590	-138.62781	503.81964	-204.33014	-501.30246	489.01236	-257.60675	-73.53352	96.61970	-317.05743	-449.03357	90.04231	-283.50989	
258	2.570	-532.10107	1383.46082	27.45446	-482.47867	1680.39099	-63.53754				-617.49036	1487.91724	-36.25105	-251.47713	1517.08105	-179.22311	-623.67163	1392.10767	-160.19630	-405.79691	1274.43323	-150.64476	-471.94174	1519.83240	-297.93533	-234.90811	1370.78174	-120.98847	-743.38702	1146.42322	-92.86809	-97.76500	1294.84973	-241.48459	-774.53900	1000.07336	114.66708	-185.73595	937.99292	-190.30261	-480.60309	891.09393	-179.52039	-308.76297	1015.99280	-435.30368	-139.08258	504.13278	-203.77489	-504.34561	489.12247	-258.67346	-73.71397	96.74697	-317.08627	-448.76581	89.47894	-283.41373	
259	2.580	-533.52527	1383.07178	27.12359	-484.56497	1680.47815	-63.96880							-254.53551	1516.73718	-178.30731	-625.60852	1391.86743	-159.17108	-407.94083	1275.02686	-147.89328	-473.58411	1519.57153	-297.34329	-236.86656	1370.95728	-119.65122	-744.42847	1145.95325	-92.38691	-99.34092	1295.06995	-241.17609	-774.75397	999.45062	115.72272	-187.27199	938.09357	-189.13486	-481.51285	890.88391	-178.83841	-311.20450	1015.90955	-433.68350	-139.09749	504.27661	-203.61987	-506.95258	488.69543	-258.53384	-73.77262	96.75010	-317.06924	-449.18338	89.86138	-283.94760	
260	2.590	-535.09973	1382.86536	27.49299	-486.42075	1680.46289	-62.26165				-621.40161	1488.03796	-35.39529	-254.53551	1516.73718	-178.30731	-627.08942	1391.37024	-158.46625	-409.16568	1273.83154	-149.15564	-475.68893	1519.36035	-296.78043	-238.57718	1371.12659	-119.45839	-745.83453	1145.63232	-91.75723	-101.70175	1295.00476	-239.37894	-775.08344	998.54950	115.46439	-189.35037	938.22058	-188.42061	-483.58353	891.03137	-178.43166	-312.82495	1015.66418	-432.92126	-139.55681	503.99588	-202.89754	-509.81213	488.77457	-259.03546	-73.82574	96.75964	-317.04922	-449.37402	89.59606	-283.87137	
261	2.600	-537.47510	1383.29956	27.87654	-488.36539	1680.48767	-61.91611				-621.85779	1487.90344	-34.77995	-256.33301	1517.06470	-177.44073	-628.46295	1391.13623	-158.18796	-411.23761	1274.13477	-146.60233	-477.10779	1519.31091	-296.15436	-239.82222	1371.13684	-118.51230	-746.95624	1144.93787	-90.78693	-103.59890	1295.85278	-238.93326	-775.50134	997.64862	116.69790	-190.48134	938.03320	-188.18893	-484.57629	890.82684	-177.30861	-314.84122	1015.79492	-431.23923	-140.16983	504.08353	-202.12074	-511.13605	487.55225	-258.57141	-74.05267	97.21941	-317.31961	-449.58786	89.37491	-283.90665	
262	2.610	-539.30420	1383.52039	28.49118	-490.09772	1680.71765	-61.79062				-623.47864	1488.28625	-34.41259				-630.28168	1390.92188	-157.35843	-413.01404	1274.15393	-145.51682	-478.70880	1518.87781	-295.34268	-241.90857	1371.09851	-117.69527	-748.00842	1144.57532	-90.05423	-105.01617	1295.85632	-238.13495	-775.90405	996.99915	117.12997	-191.98082	938.15259	-187.22267	-486.03928	890.79498	-176.98314	-316.94119	1015.80145	-430.16925	-141.32159	503.89032	-201.13457	-513.48242	487.29224	-258.08911	-73.94964	96.96462	-317.20505	-449.61600	89.35788	-283.91766	
263	2.620	-540.38055	1382.86255	29.73344	-491.82922	1680.67383	-61.27345				-626.46936	1488.59827	-32.91847	-259.98700	1517.80493	-174.89432	-631.90320	1390.69824	-156.69691	-414.53506	1274.09766	-143.91280	-480.60217	1518.58838	-294.81873	-243.15320	1371.48010	-117.45167	-748.88080	1144.38892	-89.36432	-106.36766	1295.36938	-238.04884	-776.05072	996.15558	117.96526	-193.66446	937.82806	-186.11009	-486.70551	890.49707	-175.22404	-318.88934	1015.49567	-429.03015	-142.34814	503.59601	-200.60434	-517.89252	488.17615	-258.80435	-74.14706	97.41367	-317.15857	-449.64484	89.33781	-283.93161	
264	2.630	-542.01215	1383.89124	32.81541	-493.43906	1680.72827	-61.15174				-626.69006	1488.26550	-32.86578	-261.26620	1517.54077	-175.67529	-633.47638	1390.54614	-156.14601	-416.05423	1275.13770	-142.46521	-482.04147	1518.61768	-294.16043	-244.16550	1371.41162	-117.19869	-749.92645	1143.92480	-88.64701	-108.04690	1294.90564	-237.20976	-776.88995	996.49585	117.63513	-194.72397	938.09222	-185.33403	-487.74490	890.88831	-174.96490	-320.17834	1015.39954	-427.97687	-142.77563	503.53922	-199.84361	-520.57611	487.67471	-257.66486	-74.18854	97.43526	-317.13324	-449.70224	89.30727	-283.93805	
265	2.640	-543.63702	1384.56958	33.72175	-494.96341	1680.81653	-60.20719				-628.21686	1488.34167	-31.99433	-263.50381	1517.00806	-175.89432	-634.78168	1390.33008	-155.67143	-417.39255	1274.99182	-141.04184	-483.59589	1518.70081	-293.58331	-246.25682	1371.02917	-115.69311	-750.99518	1143.27966	-88.43736	-109.06670	1294.81274	-237.43210	-777.34485	996.04639	117.90130	-196.97658	937.61731	-184.77596	-489.76819	890.68073	-174.84013	-321.84000	1015.00702	-426.72348	-144.31496	503.14117	-198.87244	-522.00977	487.59286	-257.16486	-74.24850	97.44782	-317.10944	-449.93915	89.11005	-283.72107	
266	2.650	-545.07098	1383.70374	31.32660	-496.40601	1680.67627	-59.97284				-630.97211	1488.24829	-30.88414	-264.44513	1517.01343	-176.23466	-636.13049	1390.50171	-154.08051	-418.79782	1274.60107	-141.25314	-484.84921	1518.52966	-292.88824	-247.07027	1370.85400	-115.13935	-752.08813	1143.08105	-87.36798	-110.37478	1294.25269	-235.87828	-778.17920	995.58453	118.03252	-198.99155	937.14471	-183.90793	-491.24344	890.45544	-174.02719	-323.55463	1014.73688	-425.53592	-145.38562	502.75876	-197.46396	-525.76642	487.94379	-255.73392	-74.66161	97.85845	-317.29846	-449.94501	89.09771	-283.71823	
267	2.660	-547.05005	1384.40735	33.29846	-497.77261	1680.97290	-60.37731				-630.95966	1488.45679	-31.19853	-265.05612	1516.74976	-175.80447	-637.61078	1390.40869	-154.13196	-420.02182	1274.62878	-140.67563	-486.24139	1518.16089	-292.18173	-247.95500	1371.06543	-114.86535	-753.25415	1142.86584	-87.10198	-112.58995	1293.97986	-235.89970	-778.93933	995.08893	118.37720	-200.29312	936.80182	-183.85028	-492.54562	890.05103	-173.08278	-325.35403	1014.71405	-424.39871	-147.35336	502.48300	-196.47762	-528.03119	487.86392	-255.55524	-75.03213	98.26237	-317.17545	-449.97540	89.10377	-283.71283	
268	2.670	-548.33392	1384.16504	33.69209	-499.03723	1680.73035	-59.27605				-632.31427	1488.42664	-30.14837	-266.58960	1516.73669	-174.82104	-638.99109	1390.04309	-153.46693	-422.08569	1275.20349	-138.13745	-487.63022	1517.80872	-291.23700	-249.67894	1370.58081	-113.49729	-754.32642	1142.81177	-87.43436	-114.11949	1294.43213	-235.31491	-779.56006	994.75256	119.17552	-202.38487	937.12830	-183.20985	-493.75031	889.88348	-172.62500	-326.62592	1014.82227	-424.00595	-148.89191	502.38748	-195.46581	-528.59149	487.51767	-253.72166	-75.12764	98.53882	-317.33551	-449.99887	89.09564	-283.69678	
269	2.680	-549.02057	1384.69727	35.70638	-500.13748	1680.84924	-58.68388				-634.84503	1488.45642	-29.14957	-268.50635	1516.75732	-172.46457	-640.29980	1389.96301	-153.20648	-423.07126	1275.20007	-138.31850	-488.95898	1518.46643	-290.96777	-250.98399	1370.44727	-112.78589	-755.80060	1142.64563	-87.55624	-115.01324	1294.42456	-235.66266	-779.18182	994.80719	119.57893	-203.62592	937.03754	-182.64983	-494.35577	890.06067	-171.07643	-328.29562	1014.74689	-422.71124	-149.59212	502.66882	-194.48819	-532.29987	487.91949	-252.98866	-75.67358	97.88757	-317.74411	-450.02118	89.12410	-283.69778	
